<svg xmlns="http://www.w3.org/2000/svg" viewBox="0 0 335.45 422.2"><defs><style>.cls-1{fill:#ffd206;}.cls-2{fill:#f3c332;}.cls-3{fill:#f1cc59;}.cls-4{fill:#bf863e;}</style></defs><g id="Capa_2" data-name="Capa 2"><path class="cls-1" d="M111.32,252.47h38.57a31.67,31.67,0,0,1-4.71-4.29c-1.29-1.71-.86-86.14-.86-86.14l39.43,86.14L224.89,162l1.29,86.35a39,39,0,0,1-4.5,2.58l-1.93.85,45,.65s-6.22-3-6.43-3.86.21-109.29.21-109.29.65-3.43,5.15-3.64c1.07,0,1.07-1.93,1.07-1.93H204.1l-.21,2.14s4.07-.64,4.5,2.79S187,189,187,189s-23.14-46.72-22.71-48.43.64-4.07,4.07-4.07c1.93-.22,1.5-2.79,1.5-2.79h-58.5v2.14s3.64-.42,4.71,1.72S117.32,248,117.32,248a7.25,7.25,0,0,1-3.4,3,12.25,12.25,0,0,1-2.6.24Z" transform="translate(-21.58 -32.23)"/><path class="cls-2" d="M288.49,240.21a110.92,110.92,0,0,1-200.9,0H54.13a141.93,141.93,0,0,0,267.81,0Z" transform="translate(-21.58 -32.23)"/><path class="cls-3" d="M328.36,172.15a140.81,140.81,0,0,0-8.27-30.94L338,130.85,317,94.39l-18,10.38a142.3,142.3,0,0,0-21.31-21.54l10.6-18.36L251.82,43.81,241.47,61.73a141.23,141.23,0,0,0-31.89-8.8V32.23H167.47V52.79a140.88,140.88,0,0,0-29.72,7.69l-9.63-16.67L91.66,64.87,101,81.1a142.63,142.63,0,0,0-22.68,22.07L63.14,94.39l-21,36.46,14.64,8.46a140.63,140.63,0,0,0-8.95,32.21h-19v42.11H47.6a142.54,142.54,0,0,0,3.46,16.73H83.53a110.9,110.9,0,1,1,209,0H325a138.63,138.63,0,0,0,3.37-16.11h19v-42.1Z" transform="translate(-21.58 -32.23)"/></g><g id="Capa_3" data-name="Capa 3"><path class="cls-4" d="M46.36,406V386.63c0-1,.08-2.59.24-4.79h-.08c-.18.59-.35,1.1-.5,1.53a10.33,10.33,0,0,1-.42,1.05L35.84,406H34.72l-9.78-21.4a17.81,17.81,0,0,1-.88-2.76H24c.05.6.09,1.29.11,2.05s0,1.63,0,2.56V406H21.58V378h3.07L34.16,399c.19.44.38.9.57,1.36s.36.95.52,1.47h.12l.5-1.42c.15-.43.33-.89.55-1.39L46,378h2.91v28Z" transform="translate(-21.58 -32.23)"/><path class="cls-4" d="M67.59,406.45a13.05,13.05,0,0,1-5.44-1.1,12.13,12.13,0,0,1-4.12-3,13.53,13.53,0,0,1-2.59-4.5,16.59,16.59,0,0,1-.91-5.56,18.7,18.7,0,0,1,.91-6,13,13,0,0,1,2.64-4.67,11.91,11.91,0,0,1,4.26-3,14.44,14.44,0,0,1,5.74-1.08,12.89,12.89,0,0,1,5.34,1.06,11.72,11.72,0,0,1,4,2.95A13.23,13.23,0,0,1,80,386a17.18,17.18,0,0,1,.89,5.61,19.37,19.37,0,0,1-.87,5.91,13.65,13.65,0,0,1-2.56,4.71,11.9,11.9,0,0,1-4.16,3.13A13.64,13.64,0,0,1,67.59,406.45Zm.22-26.6a10,10,0,0,0-4.5,1A9.74,9.74,0,0,0,60,383.43a11.36,11.36,0,0,0-2,3.87,16.13,16.13,0,0,0-.72,4.72,16,16,0,0,0,.62,4.56,11.67,11.67,0,0,0,1.91,3.85A9.37,9.37,0,0,0,63,403.09a9.84,9.84,0,0,0,4.57,1,10.84,10.84,0,0,0,4.59-.91,9.16,9.16,0,0,0,3.32-2.52,11,11,0,0,0,2-3.84,16.65,16.65,0,0,0,.67-4.86,18.16,18.16,0,0,0-.59-4.67,11.08,11.08,0,0,0-1.86-3.86,8.94,8.94,0,0,0-3.21-2.61A10.44,10.44,0,0,0,67.81,379.85Z" transform="translate(-21.58 -32.23)"/><path class="cls-4" d="M105.66,406,90.11,383.48c-.19-.28-.38-.58-.57-.88a6.15,6.15,0,0,1-.46-.87H89c0,.23,0,.56.07,1s0,.94,0,1.56V406h-2.6V378h2.87l15.3,22.2q.34.52.63,1c.19.3.36.59.52.85h.1a14.39,14.39,0,0,1-.12-1.45c0-.53,0-1.12,0-1.77V378h2.62v28Z" transform="translate(-21.58 -32.23)"/><path class="cls-4" d="M123.63,380.34V406H121V380.34H113V378h18.75v2.38Z" transform="translate(-21.58 -32.23)"/><path class="cls-4" d="M151.46,406l-3.08-8.28h-12l-3,8.28h-2.89l10.66-28h2.62l10.6,28Zm-8.53-23.1c-.09-.25-.19-.54-.29-.86a9.29,9.29,0,0,1-.24-1.11h-.08c-.08.41-.16.78-.26,1.11s-.19.61-.29.86l-4.53,12.46H147.5Z" transform="translate(-21.58 -32.23)"/><path class="cls-4" d="M177.07,404.93a17.29,17.29,0,0,1-7.4,1.52,13.65,13.65,0,0,1-5.4-1,12.19,12.19,0,0,1-4.13-2.9,13,13,0,0,1-2.63-4.42,16.17,16.17,0,0,1-.93-5.58,17.32,17.32,0,0,1,1-5.93,13.9,13.9,0,0,1,2.82-4.77,13.09,13.09,0,0,1,4.44-3.17,14.3,14.3,0,0,1,5.85-1.15,17.55,17.55,0,0,1,6.39,1.09v2.77a14.23,14.23,0,0,0-6.43-1.5,11.65,11.65,0,0,0-4.82.94,9.91,9.91,0,0,0-3.56,2.61,11.39,11.39,0,0,0-2.2,3.94,15.51,15.51,0,0,0-.77,5,14.71,14.71,0,0,0,.69,4.56,10.89,10.89,0,0,0,2,3.74,9.48,9.48,0,0,0,3.33,2.54,10.69,10.69,0,0,0,4.63.94,14.49,14.49,0,0,0,7.11-1.7Z" transform="translate(-21.58 -32.23)"/><path class="cls-4" d="M201.19,406l-3.09-8.28h-12l-3,8.28h-2.89l10.67-28h2.61l10.61,28Zm-8.54-23.1c-.09-.25-.18-.54-.28-.86a7.67,7.67,0,0,1-.24-1.11h-.08a11.33,11.33,0,0,1-.27,1.11c-.09.32-.19.61-.28.86L187,395.32h10.25Z" transform="translate(-21.58 -32.23)"/><path class="cls-4" d="M223.75,406l-4.22-8a16.65,16.65,0,0,0-1.21-2,6.52,6.52,0,0,0-1.21-1.28,4.35,4.35,0,0,0-1.34-.68,5.67,5.67,0,0,0-1.59-.2h-3.09V406h-2.6V378h8.07a10.18,10.18,0,0,1,3.06.46,8.33,8.33,0,0,1,2.62,1.39,6.69,6.69,0,0,1,1.85,2.31,7.1,7.1,0,0,1,.69,3.22,8,8,0,0,1-.45,2.73,6.79,6.79,0,0,1-1.28,2.22,7.56,7.56,0,0,1-2,1.64,9.48,9.48,0,0,1-2.66,1V393a4.44,4.44,0,0,1,1,.61,6.42,6.42,0,0,1,.91.9,11.52,11.52,0,0,1,.87,1.21q.42.69.9,1.56l4.7,8.67Zm-12.66-25.62v11.07h4.65a7.59,7.59,0,0,0,2.58-.41,5.59,5.59,0,0,0,2-1.17,5.37,5.37,0,0,0,1.29-1.84,6.18,6.18,0,0,0,.46-2.42,4.89,4.89,0,0,0-1.57-3.83,6.61,6.61,0,0,0-4.55-1.4Z" transform="translate(-21.58 -32.23)"/><path class="cls-4" d="M251.58,404a18.47,18.47,0,0,1-9.14,2.42,13.79,13.79,0,0,1-5.47-1,11.94,11.94,0,0,1-4.12-2.91,13,13,0,0,1-2.61-4.46,17.19,17.19,0,0,1-.91-5.69,17.65,17.65,0,0,1,.44-4,16.14,16.14,0,0,1,1.29-3.55,13.79,13.79,0,0,1,2.08-3,12.93,12.93,0,0,1,2.82-2.32,14,14,0,0,1,3.51-1.51,15.55,15.55,0,0,1,4.12-.52A17.71,17.71,0,0,1,251,379v2.87a15.65,15.65,0,0,0-7.73-2,11,11,0,0,0-4.63.94,10.24,10.24,0,0,0-3.53,2.58,11.59,11.59,0,0,0-2.25,3.87,14.41,14.41,0,0,0-.82,4.86,15.59,15.59,0,0,0,.67,4.79,10.73,10.73,0,0,0,2.06,3.8,9.42,9.42,0,0,0,3.38,2.5,11.28,11.28,0,0,0,4.65.9A12.28,12.28,0,0,0,249,402.6v-8.53h-6.37v-2.36h9Z" transform="translate(-21.58 -32.23)"/><path class="cls-4" d="M276.21,406l-3.09-8.28h-12l-3,8.28h-2.89l10.67-28h2.61l10.61,28Zm-8.54-23.1c-.09-.25-.18-.54-.28-.86a7.67,7.67,0,0,1-.24-1.11h-.08a11.33,11.33,0,0,1-.27,1.11c-.09.32-.19.61-.28.86L262,395.32h10.25Z" transform="translate(-21.58 -32.23)"/><path class="cls-4" d="M282.42,401.86a10.34,10.34,0,0,0,1.55.95,12.91,12.91,0,0,0,1.74.7,12.59,12.59,0,0,0,1.79.43,10.44,10.44,0,0,0,1.72.15,7.67,7.67,0,0,0,4.76-1.23,4.2,4.2,0,0,0,1.58-3.54,4.38,4.38,0,0,0-1.52-3.49,12.43,12.43,0,0,0-2-1.44c-.8-.47-1.73-1-2.81-1.61a35.64,35.64,0,0,1-3.08-1.85,11.2,11.2,0,0,1-2.09-1.77,5.94,5.94,0,0,1-1.19-2,6.87,6.87,0,0,1-.38-2.4,6.39,6.39,0,0,1,.72-3.05,7.13,7.13,0,0,1,1.95-2.29,9.09,9.09,0,0,1,2.88-1.46,12.24,12.24,0,0,1,3.53-.5,14.64,14.64,0,0,1,5.53.91v2.88a11.52,11.52,0,0,0-5.82-1.43,9,9,0,0,0-2.36.3A6.34,6.34,0,0,0,287,381a4.26,4.26,0,0,0-1.31,1.46,4.11,4.11,0,0,0-.48,2,5,5,0,0,0,.32,1.88,4.52,4.52,0,0,0,1,1.5,9.66,9.66,0,0,0,1.87,1.39c.78.47,1.73,1,2.85,1.6a33,33,0,0,1,3.06,1.82,11.72,11.72,0,0,1,2.18,1.86,6.87,6.87,0,0,1,1.3,2.05,6.59,6.59,0,0,1,.43,2.41,7.21,7.21,0,0,1-.69,3.23,6.33,6.33,0,0,1-1.91,2.32,8.73,8.73,0,0,1-2.93,1.38,13.65,13.65,0,0,1-3.73.47,12.22,12.22,0,0,1-1.58-.11,18,18,0,0,1-1.86-.31,15.41,15.41,0,0,1-1.78-.49,6,6,0,0,1-1.38-.61Z" transform="translate(-21.58 -32.23)"/><path class="cls-4" d="M315,406V378h13.65v2.38H317.63v10.27h10.24V393H317.63V403.6h11.68V406Z" transform="translate(-21.58 -32.23)"/><path class="cls-4" d="M354.33,406l-15.54-22.48c-.2-.28-.39-.58-.58-.88a6.15,6.15,0,0,1-.46-.87h-.1c0,.23.05.56.07,1s0,.94,0,1.56V406h-2.6V378H338l15.3,22.2q.35.52.63,1c.19.3.36.59.52.85h.1c-.05-.43-.09-.91-.12-1.45s0-1.12,0-1.77V378H357v28Z" transform="translate(-21.58 -32.23)"/><path class="cls-4" d="M104.38,454h-2.6V426h2.6Z" transform="translate(-21.58 -32.23)"/><path class="cls-4" d="M130.85,454,115.3,431.48c-.2-.28-.39-.58-.58-.87a6.82,6.82,0,0,1-.46-.88h-.09c0,.23,0,.55.07,1s0,.94,0,1.57V454h-2.59V426h2.87l15.29,22.2c.24.36.45.68.64,1l.51.85h.1c-.05-.43-.09-.91-.12-1.45s0-1.12,0-1.77V426h2.62v28Z" transform="translate(-21.58 -32.23)"/><path class="cls-4" d="M139.71,449.86a10,10,0,0,0,1.56.95,11.93,11.93,0,0,0,1.74.7,11.25,11.25,0,0,0,1.78.43,10.44,10.44,0,0,0,1.72.15,7.73,7.73,0,0,0,4.77-1.23,4.23,4.23,0,0,0,1.58-3.54,4.38,4.38,0,0,0-1.52-3.49,12.56,12.56,0,0,0-2-1.44c-.79-.47-1.73-1-2.81-1.61s-2.22-1.27-3.08-1.84a11.62,11.62,0,0,1-2.09-1.78,6.18,6.18,0,0,1-1.19-2,7.21,7.21,0,0,1-.38-2.41,6.32,6.32,0,0,1,.72-3,7.22,7.22,0,0,1,2-2.3,8.87,8.87,0,0,1,2.88-1.45,11.84,11.84,0,0,1,3.52-.51,14.4,14.4,0,0,1,5.53.92v2.87a11.46,11.46,0,0,0-5.82-1.43,8.9,8.9,0,0,0-2.35.3,6.4,6.4,0,0,0-1.94.89,4.23,4.23,0,0,0-1.3,1.46,4.11,4.11,0,0,0-.48,2,4.83,4.83,0,0,0,.32,1.88,4.48,4.48,0,0,0,1,1.5,9.76,9.76,0,0,0,1.88,1.39c.77.47,1.72,1,2.84,1.6a34.69,34.69,0,0,1,3.07,1.82,11.33,11.33,0,0,1,2.17,1.86,6.68,6.68,0,0,1,1.3,2.05,6.39,6.39,0,0,1,.43,2.41,7.21,7.21,0,0,1-.68,3.23,6.43,6.43,0,0,1-1.91,2.32,8.73,8.73,0,0,1-2.93,1.38,13.75,13.75,0,0,1-3.73.47,14.21,14.21,0,0,1-1.59-.1c-.61-.08-1.23-.18-1.85-.32a17.94,17.94,0,0,1-1.79-.48,6.69,6.69,0,0,1-1.38-.62Z" transform="translate(-21.58 -32.23)"/><path class="cls-4" d="M169.38,428.34V454h-2.6V428.34h-8.06V426h18.75v2.38Z" transform="translate(-21.58 -32.23)"/><path class="cls-4" d="M197.21,454l-3.08-8.28h-12l-3,8.28h-2.89l10.66-28h2.62l10.6,28Zm-8.53-23.1c-.09-.25-.19-.54-.28-.86a9.2,9.2,0,0,1-.25-1.11h-.08a9.12,9.12,0,0,1-.26,1.11c-.1.32-.19.61-.28.86L183,443.32h10.25Z" transform="translate(-21.58 -32.23)"/><path class="cls-4" d="M223.7,454l-15.55-22.48c-.19-.28-.39-.58-.57-.87a5.76,5.76,0,0,1-.46-.88H207c0,.23,0,.55.07,1s0,.94,0,1.57V454h-2.6V426h2.87l15.29,22.2c.24.36.45.68.64,1s.36.59.52.85h.09c-.05-.43-.09-.91-.11-1.45s0-1.12,0-1.77V426h2.61v28Z" transform="translate(-21.58 -32.23)"/><path class="cls-4" d="M241.67,428.34V454h-2.6V428.34H231V426h18.75v2.38Z" transform="translate(-21.58 -32.23)"/><path class="cls-4" d="M254.36,454V426H268v2.38H257v10.27h10.23V441H257V451.6h11.68V454Z" transform="translate(-21.58 -32.23)"/><path class="cls-4" d="M273.39,449.86a9.42,9.42,0,0,0,1.55.95,12.4,12.4,0,0,0,1.74.7,11.52,11.52,0,0,0,1.78.43,10.53,10.53,0,0,0,1.72.15,7.73,7.73,0,0,0,4.77-1.23,4.23,4.23,0,0,0,1.58-3.54,4.66,4.66,0,0,0-.37-1.94,4.84,4.84,0,0,0-1.15-1.55,12.1,12.1,0,0,0-2-1.44c-.79-.47-1.73-1-2.81-1.61s-2.22-1.27-3.07-1.84a11.28,11.28,0,0,1-2.09-1.78,6.21,6.21,0,0,1-1.2-2,7.21,7.21,0,0,1-.38-2.41,6.21,6.21,0,0,1,.73-3,7.07,7.07,0,0,1,2-2.3A8.87,8.87,0,0,1,279,426a11.91,11.91,0,0,1,3.53-.51,14.34,14.34,0,0,1,5.52.92v2.87a11.46,11.46,0,0,0-5.82-1.43,8.9,8.9,0,0,0-2.35.3A6.23,6.23,0,0,0,278,429a4.26,4.26,0,0,0-1.31,1.46,4.11,4.11,0,0,0-.48,2,5,5,0,0,0,.32,1.88,4.52,4.52,0,0,0,1,1.5,9.66,9.66,0,0,0,1.87,1.39c.78.47,1.72,1,2.84,1.6a33.3,33.3,0,0,1,3.07,1.82,11.72,11.72,0,0,1,2.18,1.86,6.87,6.87,0,0,1,1.3,2.05,6.59,6.59,0,0,1,.43,2.41,7.21,7.21,0,0,1-.69,3.23,6.33,6.33,0,0,1-1.91,2.32,8.73,8.73,0,0,1-2.93,1.38,13.7,13.7,0,0,1-3.73.47,14,14,0,0,1-1.58-.1c-.62-.08-1.24-.18-1.86-.32a17.94,17.94,0,0,1-1.79-.48,6.59,6.59,0,0,1-1.37-.62Z" transform="translate(-21.58 -32.23)"/></g></svg>