<svg xmlns="http://www.w3.org/2000/svg" viewBox="0 0 318.59 302.86"><defs><style>.cls-1{fill:#282554;}.cls-2{fill:#3b4192;}</style></defs><g id="Capa_2" data-name="Capa 2"><path class="cls-1" d="M98.14,274.11h38.57a31.49,31.49,0,0,1-4.72-4.29c-1.28-1.71-.85-86.14-.85-86.14l39.43,86.14,41.14-86.14L213,270a38.66,38.66,0,0,1-4.5,2.57l-1.92.86,45,.64s-6.22-3-6.43-3.86.21-109.28.21-109.28.64-3.43,5.14-3.65c1.08,0,1.08-1.93,1.08-1.93H190.92l-.21,2.15s4.07-.65,4.5,2.78-21.43,50.36-21.43,50.36S150.64,164,151.07,162.25s.64-4.07,4.07-4.07c1.93-.21,1.5-2.79,1.5-2.79H98.14v2.15s3.64-.43,4.71,1.71,1.29,110.36,1.29,110.36a7.25,7.25,0,0,1-3.4,3,12.25,12.25,0,0,1-2.6.24Z" transform="translate(-15.56 -53.88)"/><path class="cls-1" d="M275.31,261.86a110.93,110.93,0,0,1-200.91,0H40.94a141.93,141.93,0,0,0,267.81,0Z" transform="translate(-15.56 -53.88)"/><path class="cls-2" d="M315.18,193.79a141.11,141.11,0,0,0-8.27-30.94l17.94-10.36L303.8,116l-18,10.38a142.77,142.77,0,0,0-21.31-21.54l10.6-18.36L238.64,65.46,228.29,83.37a140.69,140.69,0,0,0-31.89-8.79V53.88H154.29V74.44a140.87,140.87,0,0,0-29.72,7.68l-9.63-16.66L78.48,86.51l9.37,16.23a142.64,142.64,0,0,0-22.68,22.07L50,116,28.9,152.49,43.55,161a140.91,140.91,0,0,0-8.95,32.21h-19v42.11H34.42A142.12,142.12,0,0,0,37.88,252H70.35a110.89,110.89,0,1,1,209,0h32.45a140.57,140.57,0,0,0,3.37-16.1h19V193.79Z" transform="translate(-15.56 -53.88)"/></g></svg>