<svg xmlns="http://www.w3.org/2000/svg" viewBox="0 0 387.41 506.98"><defs><style>.cls-1{fill:#fff;}.cls-2{fill:#282554;}.cls-3{fill:#3b4192;}.cls-4{font-size:40px;fill:#1d1d1b;font-family:SegoeUI-Semilight, Segoe UI;font-weight:300;}.cls-5{letter-spacing:-0.08em;}.cls-6{letter-spacing:-0.01em;}.cls-7{letter-spacing:-0.01em;}</style></defs><g id="Capa_1" data-name="Capa 1"><rect class="cls-1" width="387.41" height="506.98"/></g><g id="Capa_2" data-name="Capa 2"><path class="cls-2" d="M111.32,252.47h38.57a31.67,31.67,0,0,1-4.71-4.29c-1.29-1.71-.86-86.14-.86-86.14l39.43,86.14L224.89,162l1.29,86.35a39,39,0,0,1-4.5,2.58l-1.93.85,45,.65s-6.22-3-6.43-3.86.21-109.29.21-109.29.65-3.43,5.15-3.64c1.07,0,1.07-1.93,1.07-1.93H204.1l-.21,2.14s4.07-.64,4.5,2.79S187,189,187,189s-23.14-46.72-22.71-48.43.64-4.07,4.07-4.07c1.93-.22,1.5-2.79,1.5-2.79h-58.5v2.14s3.64-.42,4.71,1.72S117.32,248,117.32,248a7.25,7.25,0,0,1-3.4,3,12.25,12.25,0,0,1-2.6.24Z" transform="translate(5.67 5.67)"/><path class="cls-2" d="M288.49,240.21a110.92,110.92,0,0,1-200.9,0H54.13a141.93,141.93,0,0,0,267.81,0Z" transform="translate(5.67 5.67)"/><path class="cls-3" d="M328.36,172.15a140.81,140.81,0,0,0-8.27-30.94L338,130.85,317,94.39l-18,10.38a142.3,142.3,0,0,0-21.31-21.54l10.6-18.36L251.82,43.81,241.47,61.73a141.23,141.23,0,0,0-31.89-8.8V32.23H167.47V52.79a140.88,140.88,0,0,0-29.72,7.69l-9.63-16.67L91.66,64.87,101,81.1a142.63,142.63,0,0,0-22.68,22.07L63.14,94.39l-21,36.46,14.64,8.46a140.63,140.63,0,0,0-8.95,32.21h-19v42.11H47.6a142.54,142.54,0,0,0,3.46,16.73H83.53a110.9,110.9,0,1,1,209,0H325a138.63,138.63,0,0,0,3.37-16.11h19v-42.1Z" transform="translate(5.67 5.67)"/></g><g id="Capa_3" data-name="Capa 3"><text class="cls-4" transform="translate(23.62 411.63)">MON<tspan class="cls-5" x="94.04" y="0">T</tspan><tspan class="cls-6" x="111.74" y="0">A</tspan><tspan x="136.66" y="0">CA</tspan><tspan class="cls-7" x="186.91" y="0">R</tspan><tspan x="209.41" y="0">GAS EN </tspan><tspan x="80.21" y="48">INS</tspan><tspan class="cls-5" x="139.79" y="48">T</tspan><tspan x="157.49" y="48">ANTES</tspan></text></g></svg>